<mxfile host="app.diagrams.net" modified="2020-11-12T09:39:18.465Z" agent="5.0 (Macintosh; Intel Mac OS X 10_15_7) AppleWebKit/605.1.15 (KHTML, like Gecko) Version/14.0 Safari/605.1.15" etag="-Fq4Ggez_4B5hSNxKeCN" version="13.9.7" type="github">
  <diagram id="rgb0PvBgHcKjhMLCmZT0" name="Page-1">
    <mxGraphModel dx="1323" dy="1085" grid="1" gridSize="10" guides="1" tooltips="1" connect="1" arrows="1" fold="1" page="1" pageScale="1" pageWidth="827" pageHeight="1169" math="0" shadow="0">
      <root>
        <mxCell id="0" />
        <mxCell id="1" parent="0" />
        <mxCell id="6Ux4PTWEZd8ewe7cHTty-1" style="edgeStyle=orthogonalEdgeStyle;rounded=0;orthogonalLoop=1;jettySize=auto;html=1;exitX=1;exitY=0.5;exitDx=0;exitDy=0;" edge="1" parent="1" source="6Ux4PTWEZd8ewe7cHTty-2" target="6Ux4PTWEZd8ewe7cHTty-3">
          <mxGeometry relative="1" as="geometry" />
        </mxCell>
        <mxCell id="6Ux4PTWEZd8ewe7cHTty-2" value="one" style="rounded=0;whiteSpace=wrap;html=1;" vertex="1" parent="1">
          <mxGeometry x="140" y="300" width="120" height="60" as="geometry" />
        </mxCell>
        <mxCell id="6Ux4PTWEZd8ewe7cHTty-3" value="two" style="rounded=0;whiteSpace=wrap;html=1;" vertex="1" parent="1">
          <mxGeometry x="380" y="300" width="120" height="60" as="geometry" />
        </mxCell>
      </root>
    </mxGraphModel>
  </diagram>
</mxfile>
